<mxfile host="65bd71144e">
    <diagram name="Page-1" id="l7doFSjluoBITXq5NCZk">
        <mxGraphModel dx="1136" dy="607" grid="1" gridSize="10" guides="1" tooltips="1" connect="1" arrows="1" fold="1" page="1" pageScale="1" pageWidth="850" pageHeight="1100" math="0" shadow="0">
            <root>
                <mxCell id="0"/>
                <mxCell id="1" parent="0"/>
                <mxCell id="KWl9GHHW3rDw3gCbi46W-5" value="" style="edgeStyle=orthogonalEdgeStyle;rounded=0;orthogonalLoop=1;jettySize=auto;html=1;" parent="1" source="KWl9GHHW3rDw3gCbi46W-1" target="KWl9GHHW3rDw3gCbi46W-4" edge="1">
                    <mxGeometry relative="1" as="geometry"/>
                </mxCell>
                <mxCell id="KWl9GHHW3rDw3gCbi46W-1" value="Start" style="rounded=1;whiteSpace=wrap;html=1;" parent="1" vertex="1">
                    <mxGeometry x="50" y="20" width="80" height="40" as="geometry"/>
                </mxCell>
                <mxCell id="KWl9GHHW3rDw3gCbi46W-9" value="" style="edgeStyle=orthogonalEdgeStyle;rounded=0;orthogonalLoop=1;jettySize=auto;html=1;entryX=0.5;entryY=0;entryDx=0;entryDy=0;" parent="1" source="KWl9GHHW3rDw3gCbi46W-4" target="2" edge="1">
                    <mxGeometry relative="1" as="geometry"/>
                </mxCell>
                <mxCell id="KWl9GHHW3rDw3gCbi46W-4" value="&lt;div&gt;Display &quot;Please type in&lt;/div&gt;&lt;div&gt;&amp;nbsp;any year&quot;&lt;/div&gt;" style="shape=parallelogram;perimeter=parallelogramPerimeter;whiteSpace=wrap;html=1;fixedSize=1;" parent="1" vertex="1">
                    <mxGeometry x="8.75" y="80" width="162.5" height="40" as="geometry"/>
                </mxCell>
                <mxCell id="KWl9GHHW3rDw3gCbi46W-11" value="" style="edgeStyle=orthogonalEdgeStyle;rounded=0;orthogonalLoop=1;jettySize=auto;html=1;" parent="1" source="KWl9GHHW3rDw3gCbi46W-8" target="KWl9GHHW3rDw3gCbi46W-10" edge="1">
                    <mxGeometry relative="1" as="geometry"/>
                </mxCell>
                <mxCell id="5" value="" style="edgeStyle=none;html=1;" edge="1" parent="1" source="KWl9GHHW3rDw3gCbi46W-8" target="KWl9GHHW3rDw3gCbi46W-10">
                    <mxGeometry relative="1" as="geometry"/>
                </mxCell>
                <mxCell id="KWl9GHHW3rDw3gCbi46W-8" value="Check=Year/4" style="whiteSpace=wrap;html=1;" parent="1" vertex="1">
                    <mxGeometry x="30" y="190" width="120" height="60" as="geometry"/>
                </mxCell>
                <mxCell id="KWl9GHHW3rDw3gCbi46W-13" value="" style="edgeStyle=orthogonalEdgeStyle;rounded=0;orthogonalLoop=1;jettySize=auto;html=1;" parent="1" source="KWl9GHHW3rDw3gCbi46W-10" target="KWl9GHHW3rDw3gCbi46W-12" edge="1">
                    <mxGeometry relative="1" as="geometry"/>
                </mxCell>
                <mxCell id="KWl9GHHW3rDw3gCbi46W-14" value="No" style="edgeLabel;html=1;align=center;verticalAlign=middle;resizable=0;points=[];" parent="KWl9GHHW3rDw3gCbi46W-13" vertex="1" connectable="0">
                    <mxGeometry x="-0.25" y="4" relative="1" as="geometry">
                        <mxPoint as="offset"/>
                    </mxGeometry>
                </mxCell>
                <mxCell id="KWl9GHHW3rDw3gCbi46W-16" value="" style="edgeStyle=orthogonalEdgeStyle;rounded=0;orthogonalLoop=1;jettySize=auto;html=1;entryX=0.5;entryY=0;entryDx=0;entryDy=0;" parent="1" source="KWl9GHHW3rDw3gCbi46W-10" target="KWl9GHHW3rDw3gCbi46W-18" edge="1">
                    <mxGeometry relative="1" as="geometry">
                        <mxPoint x="90" y="390" as="targetPoint"/>
                    </mxGeometry>
                </mxCell>
                <mxCell id="KWl9GHHW3rDw3gCbi46W-17" value="Yes" style="edgeLabel;html=1;align=center;verticalAlign=middle;resizable=0;points=[];" parent="KWl9GHHW3rDw3gCbi46W-16" vertex="1" connectable="0">
                    <mxGeometry x="-0.05" y="2" relative="1" as="geometry">
                        <mxPoint as="offset"/>
                    </mxGeometry>
                </mxCell>
                <mxCell id="KWl9GHHW3rDw3gCbi46W-10" value="&lt;div&gt;Check is&lt;/div&gt;&lt;div&gt;&amp;nbsp;an integer&lt;/div&gt;" style="rhombus;whiteSpace=wrap;html=1;" parent="1" vertex="1">
                    <mxGeometry x="50" y="270" width="80" height="80" as="geometry"/>
                </mxCell>
                <mxCell id="KWl9GHHW3rDw3gCbi46W-37" value="" style="edgeStyle=orthogonalEdgeStyle;rounded=0;orthogonalLoop=1;jettySize=auto;html=1;entryX=1;entryY=0.5;entryDx=0;entryDy=0;" parent="1" source="KWl9GHHW3rDw3gCbi46W-12" target="KWl9GHHW3rDw3gCbi46W-23" edge="1">
                    <mxGeometry relative="1" as="geometry">
                        <mxPoint x="495" y="310" as="targetPoint"/>
                        <Array as="points">
                            <mxPoint x="420" y="310"/>
                            <mxPoint x="420" y="710"/>
                        </Array>
                    </mxGeometry>
                </mxCell>
                <mxCell id="KWl9GHHW3rDw3gCbi46W-12" value="Display &quot;(Year) is not a Leap Year &quot;" style="shape=parallelogram;perimeter=parallelogramPerimeter;whiteSpace=wrap;html=1;fixedSize=1;" parent="1" vertex="1">
                    <mxGeometry x="190" y="280" width="150" height="60" as="geometry"/>
                </mxCell>
                <mxCell id="KWl9GHHW3rDw3gCbi46W-20" value="" style="edgeStyle=orthogonalEdgeStyle;rounded=0;orthogonalLoop=1;jettySize=auto;html=1;" parent="1" source="KWl9GHHW3rDw3gCbi46W-18" target="KWl9GHHW3rDw3gCbi46W-19" edge="1">
                    <mxGeometry relative="1" as="geometry"/>
                </mxCell>
                <mxCell id="KWl9GHHW3rDw3gCbi46W-18" value="Check=Year/100" style="whiteSpace=wrap;html=1;" parent="1" vertex="1">
                    <mxGeometry x="30" y="390" width="120" height="60" as="geometry"/>
                </mxCell>
                <mxCell id="KWl9GHHW3rDw3gCbi46W-22" value="" style="edgeStyle=orthogonalEdgeStyle;rounded=0;orthogonalLoop=1;jettySize=auto;html=1;" parent="1" source="KWl9GHHW3rDw3gCbi46W-19" target="KWl9GHHW3rDw3gCbi46W-21" edge="1">
                    <mxGeometry relative="1" as="geometry"/>
                </mxCell>
                <mxCell id="KWl9GHHW3rDw3gCbi46W-35" value="No" style="edgeLabel;html=1;align=center;verticalAlign=middle;resizable=0;points=[];" parent="KWl9GHHW3rDw3gCbi46W-22" vertex="1" connectable="0">
                    <mxGeometry x="-0.4" y="-3" relative="1" as="geometry">
                        <mxPoint as="offset"/>
                    </mxGeometry>
                </mxCell>
                <mxCell id="KWl9GHHW3rDw3gCbi46W-26" value="" style="edgeStyle=orthogonalEdgeStyle;rounded=0;orthogonalLoop=1;jettySize=auto;html=1;entryX=0;entryY=0.5;entryDx=0;entryDy=0;" parent="1" source="KWl9GHHW3rDw3gCbi46W-19" target="KWl9GHHW3rDw3gCbi46W-27" edge="1">
                    <mxGeometry relative="1" as="geometry">
                        <mxPoint x="172.5" y="520" as="targetPoint"/>
                    </mxGeometry>
                </mxCell>
                <mxCell id="KWl9GHHW3rDw3gCbi46W-34" value="Yes" style="edgeLabel;html=1;align=center;verticalAlign=middle;resizable=0;points=[];" parent="KWl9GHHW3rDw3gCbi46W-26" vertex="1" connectable="0">
                    <mxGeometry x="0.24" y="2" relative="1" as="geometry">
                        <mxPoint x="-21" y="2" as="offset"/>
                    </mxGeometry>
                </mxCell>
                <mxCell id="KWl9GHHW3rDw3gCbi46W-19" value="&lt;div&gt;Check is&lt;/div&gt;&lt;div&gt;an integer&lt;br&gt;&lt;/div&gt;" style="rhombus;whiteSpace=wrap;html=1;" parent="1" vertex="1">
                    <mxGeometry x="50" y="480" width="80" height="80" as="geometry"/>
                </mxCell>
                <mxCell id="KWl9GHHW3rDw3gCbi46W-24" value="" style="edgeStyle=orthogonalEdgeStyle;rounded=0;orthogonalLoop=1;jettySize=auto;html=1;" parent="1" source="KWl9GHHW3rDw3gCbi46W-21" target="KWl9GHHW3rDw3gCbi46W-23" edge="1">
                    <mxGeometry relative="1" as="geometry"/>
                </mxCell>
                <mxCell id="KWl9GHHW3rDw3gCbi46W-21" value="&lt;div&gt;Display &quot;(Year) is&lt;/div&gt;&lt;div&gt;&amp;nbsp;a Leap Year&quot;&lt;/div&gt;" style="shape=parallelogram;perimeter=parallelogramPerimeter;whiteSpace=wrap;html=1;fixedSize=1;" parent="1" vertex="1">
                    <mxGeometry x="30" y="600" width="120" height="60" as="geometry"/>
                </mxCell>
                <mxCell id="KWl9GHHW3rDw3gCbi46W-23" value="End" style="rounded=1;whiteSpace=wrap;html=1;" parent="1" vertex="1">
                    <mxGeometry x="45" y="690" width="90" height="40" as="geometry"/>
                </mxCell>
                <mxCell id="KWl9GHHW3rDw3gCbi46W-29" value="" style="edgeStyle=orthogonalEdgeStyle;rounded=0;orthogonalLoop=1;jettySize=auto;html=1;" parent="1" source="KWl9GHHW3rDw3gCbi46W-27" target="KWl9GHHW3rDw3gCbi46W-28" edge="1">
                    <mxGeometry relative="1" as="geometry"/>
                </mxCell>
                <mxCell id="KWl9GHHW3rDw3gCbi46W-27" value="Check=Year/400" style="whiteSpace=wrap;html=1;" parent="1" vertex="1">
                    <mxGeometry x="180" y="490" width="120" height="60" as="geometry"/>
                </mxCell>
                <mxCell id="KWl9GHHW3rDw3gCbi46W-30" value="" style="edgeStyle=orthogonalEdgeStyle;rounded=0;orthogonalLoop=1;jettySize=auto;html=1;" parent="1" source="KWl9GHHW3rDw3gCbi46W-28" target="KWl9GHHW3rDw3gCbi46W-21" edge="1">
                    <mxGeometry relative="1" as="geometry"/>
                </mxCell>
                <mxCell id="KWl9GHHW3rDw3gCbi46W-31" value="Yes" style="edgeLabel;html=1;align=center;verticalAlign=middle;resizable=0;points=[];" parent="KWl9GHHW3rDw3gCbi46W-30" vertex="1" connectable="0">
                    <mxGeometry x="0.1" y="1" relative="1" as="geometry">
                        <mxPoint as="offset"/>
                    </mxGeometry>
                </mxCell>
                <mxCell id="KWl9GHHW3rDw3gCbi46W-33" value="" style="edgeStyle=orthogonalEdgeStyle;rounded=0;orthogonalLoop=1;jettySize=auto;html=1;entryX=0.967;entryY=0.617;entryDx=0;entryDy=0;entryPerimeter=0;" parent="1" source="KWl9GHHW3rDw3gCbi46W-28" target="KWl9GHHW3rDw3gCbi46W-12" edge="1">
                    <mxGeometry relative="1" as="geometry">
                        <mxPoint x="340" y="630" as="targetPoint"/>
                        <Array as="points">
                            <mxPoint x="400" y="630"/>
                            <mxPoint x="400" y="317"/>
                        </Array>
                    </mxGeometry>
                </mxCell>
                <mxCell id="KWl9GHHW3rDw3gCbi46W-38" value="No" style="edgeLabel;html=1;align=center;verticalAlign=middle;resizable=0;points=[];" parent="KWl9GHHW3rDw3gCbi46W-33" vertex="1" connectable="0">
                    <mxGeometry x="-0.8554" relative="1" as="geometry">
                        <mxPoint as="offset"/>
                    </mxGeometry>
                </mxCell>
                <mxCell id="KWl9GHHW3rDw3gCbi46W-28" value="&lt;div&gt;Check is&lt;/div&gt;&lt;div&gt;an integer&lt;br&gt;&lt;/div&gt;" style="rhombus;whiteSpace=wrap;html=1;" parent="1" vertex="1">
                    <mxGeometry x="200" y="590" width="80" height="80" as="geometry"/>
                </mxCell>
                <mxCell id="3" value="" style="edgeStyle=none;html=1;" edge="1" parent="1" source="2">
                    <mxGeometry relative="1" as="geometry">
                        <mxPoint x="90" y="190" as="targetPoint"/>
                    </mxGeometry>
                </mxCell>
                <mxCell id="2" value="Input=Year" style="shape=parallelogram;perimeter=parallelogramPerimeter;whiteSpace=wrap;html=1;fixedSize=1;" vertex="1" parent="1">
                    <mxGeometry x="30" y="140" width="120" height="30" as="geometry"/>
                </mxCell>
            </root>
        </mxGraphModel>
    </diagram>
</mxfile>